<svg width="256" height="256" viewBox="0 0 256 256" fill="none" xmlns="http://www.w3.org/2000/svg">
<g id="loterry_machine">
<g id="Slot Machine 1" clip-path="url(#clip0)">
<g id="machine">
<g id="Group">
<path id="Vector" d="M174.383 5.778H44.848C31.811 5.778 21.242 16.347 21.242 29.384V225.672H197.988V29.384C197.989 16.347 187.42 5.778 174.383 5.778Z" fill="#7BAC51"/>
</g>
<g id="Group_2">
<path id="Vector_2" d="M174.383 5.778H164.383C177.42 5.778 187.989 16.347 187.989 29.384V225.672H197.989V29.384C197.989 16.347 187.42 5.778 174.383 5.778Z" fill="#5D8E33"/>
</g>
<g id="Group_3">
<path id="Vector_3" d="M44.848 5.778H54.848C41.811 5.778 31.242 16.347 31.242 29.384V225.672H21.242V29.384C21.243 16.347 31.811 5.778 44.848 5.778Z" fill="#99CA6F"/>
</g>
<g id="Group_4">
<path id="Vector_4" d="M197.988 227.672H21.242C20.137 227.672 19.242 226.777 19.242 225.672V29.384C19.242 15.265 30.729 3.778 44.848 3.778H174.382C188.501 3.778 199.987 15.265 199.987 29.384V225.672C199.988 226.776 199.093 227.672 197.988 227.672ZM23.242 223.672H195.988V29.384C195.988 17.47 186.296 7.778 174.383 7.778H44.849C32.935 7.778 23.243 17.47 23.243 29.384V223.672H23.242Z" fill="#690589"/>
</g>
<g id="Group_5">
<path id="Vector_5" d="M109.485 42.655L98.004 48.691L100.197 35.907L90.909 26.853L103.745 24.988L109.485 13.356L115.226 24.988L128.062 26.853L118.774 35.907L120.966 48.691L109.485 42.655Z" fill="#FCC24C"/>
</g>
<g id="Group_6">
<path id="Vector_6" d="M150.484 38.996L142.614 43.134L144.117 34.371L137.751 28.165L146.549 26.887L150.484 18.914L154.418 26.887L163.217 28.165L156.85 34.371L158.353 43.134L150.484 38.996Z" fill="#FCC24C"/>
</g>
<g id="Group_7">
<path id="Vector_7" d="M68.487 38.996L60.618 43.134L62.121 34.371L55.754 28.165L64.552 26.887L68.487 18.914L72.422 26.887L81.22 28.165L74.854 34.371L76.356 43.134L68.487 38.996Z" fill="#FCC24C"/>
</g>
<g id="Group_8">
<path id="Vector_8" d="M29.242 45.62C28.137 45.62 27.242 44.724 27.242 43.62V31.62C27.242 30.516 28.137 29.62 29.242 29.62C30.346 29.62 31.242 30.516 31.242 31.62V43.62C31.242 44.724 30.347 45.62 29.242 45.62Z" fill="#690589"/>
</g>
<g id="Group_9">
<path id="Vector_9" d="M98.005 50.691C97.591 50.691 97.178 50.562 96.829 50.309C96.214 49.861 95.905 49.103 96.033 48.353L98.048 36.605L89.513 28.285C88.968 27.754 88.772 26.959 89.007 26.235C89.242 25.511 89.868 24.984 90.621 24.874L102.417 23.16L107.691 12.472C108.028 11.789 108.723 11.357 109.485 11.357C110.247 11.357 110.942 11.789 111.279 12.472L116.553 23.16L128.349 24.874C129.102 24.983 129.728 25.511 129.963 26.235C130.198 26.959 130.002 27.754 129.457 28.285L120.922 36.605L122.938 48.353C123.066 49.103 122.758 49.862 122.142 50.31C121.527 50.758 120.71 50.816 120.036 50.462L109.485 44.916L98.935 50.462C98.643 50.615 98.323 50.691 98.005 50.691ZM109.485 40.655C109.804 40.655 110.125 40.732 110.416 40.885L118.311 45.035L116.802 36.245C116.692 35.596 116.906 34.934 117.377 34.474L123.764 28.249L114.938 26.966C114.287 26.872 113.724 26.463 113.432 25.872L109.486 17.875L105.54 25.872C105.248 26.462 104.686 26.872 104.034 26.966L95.208 28.249L101.595 34.474C102.066 34.933 102.28 35.596 102.17 36.244L100.662 45.035L108.556 40.885C108.846 40.732 109.166 40.655 109.485 40.655Z" fill="#690589"/>
</g>
<g id="Group_10">
<path id="Vector_10" d="M158.354 45.133C158.036 45.133 157.716 45.057 157.423 44.904L150.484 41.256L143.546 44.903C142.872 45.258 142.057 45.198 141.44 44.751C140.825 44.303 140.516 43.545 140.644 42.795L141.969 35.068L136.356 29.596C135.811 29.065 135.615 28.27 135.85 27.546C136.085 26.822 136.711 26.295 137.465 26.185L145.222 25.058L148.691 18.028C149.028 17.345 149.723 16.913 150.485 16.913C151.247 16.913 151.942 17.345 152.279 18.028L155.748 25.058L163.506 26.185C164.26 26.294 164.886 26.822 165.121 27.546C165.356 28.27 165.16 29.065 164.615 29.596L159 35.069L160.325 42.796C160.453 43.546 160.144 44.304 159.529 44.752C159.181 45.004 158.768 45.133 158.354 45.133ZM150.483 36.996C150.802 36.996 151.123 37.073 151.414 37.225L155.697 39.477L154.879 34.708C154.769 34.06 154.983 33.397 155.454 32.938L158.919 29.561L154.131 28.865C153.479 28.771 152.916 28.362 152.624 27.771L150.483 23.432L148.342 27.771C148.05 28.361 147.487 28.771 146.835 28.865L142.048 29.561L145.513 32.938C145.984 33.397 146.199 34.06 146.088 34.708L145.27 39.477L149.552 37.226C149.844 37.073 150.164 36.996 150.483 36.996Z" fill="#690589"/>
</g>
<g id="Group_11">
<path id="Vector_11" d="M76.356 45.133C76.038 45.133 75.718 45.057 75.425 44.903L68.487 41.256L61.549 44.903C60.876 45.258 60.06 45.198 59.443 44.751C58.828 44.303 58.519 43.545 58.647 42.795L59.972 35.068L54.359 29.596C53.813 29.065 53.617 28.27 53.852 27.546C54.087 26.822 54.713 26.295 55.467 26.185L63.225 25.058L66.694 18.028C67.031 17.345 67.726 16.913 68.488 16.913C69.25 16.913 69.945 17.345 70.282 18.028L73.751 25.058L81.508 26.185C82.262 26.294 82.888 26.822 83.123 27.546C83.358 28.27 83.162 29.065 82.617 29.596L77.004 35.068L78.329 42.795C78.457 43.545 78.148 44.303 77.533 44.751C77.184 45.004 76.771 45.133 76.356 45.133ZM60.053 29.562L63.517 32.939C63.989 33.398 64.204 34.061 64.093 34.709L63.275 39.478L67.557 37.227C68.139 36.92 68.836 36.92 69.418 37.227L73.7 39.478L72.882 34.709C72.772 34.061 72.986 33.398 73.457 32.939L76.922 29.562L72.135 28.866C71.483 28.772 70.92 28.363 70.628 27.772L68.487 23.433L66.346 27.772C66.054 28.362 65.492 28.772 64.839 28.866L60.053 29.562Z" fill="#690589"/>
</g>
<g id="Group_12">
<path id="Vector_12" d="M206.072 56.402H13.159C10.398 56.402 8.159 58.641 8.159 61.402V150.407V159.549C8.159 162.31 10.398 164.549 13.159 164.549H206.072C208.833 164.549 211.072 162.31 211.072 159.549V150.407V61.402C211.072 58.641 208.833 56.402 206.072 56.402Z" fill="#FCC24C"/>
</g>
<g id="Group_13">
<path id="Vector_13" d="M206.072 56.402H196.072C198.833 56.402 201.072 58.641 201.072 61.402V150.407V159.549C201.072 162.31 198.833 164.549 196.072 164.549H206.072C208.833 164.549 211.072 162.31 211.072 159.549V150.407V61.402C211.072 58.641 208.833 56.402 206.072 56.402Z" fill="#DEA42E"/>
</g>
<g id="Group_14">
<path id="Vector_14" d="M13.159 56.402H23.159C20.397 56.402 18.159 58.641 18.159 61.402V150.407V159.549C18.159 162.31 20.397 164.549 23.159 164.549H13.159C10.398 164.549 8.159 162.31 8.159 159.549V150.407V61.402C8.159 58.641 10.398 56.402 13.159 56.402Z" fill="#FCE06A"/>
</g>
<g id="Group_15">
<path id="Vector_15" d="M205.789 225.672H13.442C8.227 225.672 4 229.9 4 235.114V250.222H215.231V235.114C215.231 229.9 211.004 225.672 205.789 225.672Z" fill="#FCC24C"/>
</g>
<g id="Group_16">
<path id="Vector_16" d="M205.789 225.672H195.789C201.004 225.672 205.231 229.9 205.231 235.114V250.222H215.231V235.114C215.231 229.9 211.004 225.672 205.789 225.672Z" fill="#DEA42E"/>
</g>
<g id="Group_17">
<path id="Vector_17" d="M13.442 225.672H23.442C18.227 225.672 14 229.9 14 235.114V250.222H4V235.114C4 229.9 8.227 225.672 13.442 225.672Z" fill="#FCE06A"/>
</g>
<g id="Group_18">
<path id="Vector_18" d="M163.871 189.189H56.594C53.987 189.189 51.873 191.303 51.873 193.91V225.672H168.593V193.91C168.592 191.302 166.479 189.189 163.871 189.189Z" fill="#FF4397"/>
</g>
<g id="Group_19">
<path id="Vector_19" d="M223.757 140.898H211.073V80.053H223.757C226.364 80.053 228.478 82.167 228.478 84.774V136.176C228.478 138.784 226.364 140.898 223.757 140.898Z" fill="#5D8E33"/>
</g>
<g id="Group_20">
<path id="Vector_20" d="M211.072 152.407H8.159C7.055 152.407 6.159 151.511 6.159 150.407V61.402C6.159 57.542 9.3 54.402 13.159 54.402H206.072C209.931 54.402 213.072 57.542 213.072 61.402V150.407C213.072 151.512 212.177 152.407 211.072 152.407ZM10.159 148.407H209.072V61.402C209.072 59.748 207.726 58.402 206.072 58.402H13.159C11.505 58.402 10.159 59.748 10.159 61.402V148.407Z" fill="#690589"/>
</g>
<g id="Group_21">
<path id="Vector_21" d="M223.757 142.898H211.072C209.968 142.898 209.072 142.002 209.072 140.898V80.053C209.072 78.949 209.968 78.053 211.072 78.053H223.757C227.463 78.053 230.478 81.068 230.478 84.774V136.176C230.477 139.882 227.463 142.898 223.757 142.898ZM213.072 138.898H223.757C225.257 138.898 226.478 137.677 226.478 136.177V84.774C226.478 83.273 225.257 82.053 223.757 82.053H213.072V138.898Z" fill="#690589"/>
</g>
<g id="Group_22">
<path id="Vector_22" d="M68.011 142.84H25.964C22.258 142.84 19.242 139.825 19.242 136.119V70.69C19.242 66.984 22.258 63.969 25.964 63.969H68.011C71.717 63.969 74.733 66.984 74.733 70.69V136.118C74.732 139.825 71.717 142.84 68.011 142.84ZM25.964 67.969C24.463 67.969 23.242 69.19 23.242 70.69V136.118C23.242 137.618 24.463 138.839 25.964 138.839H68.011C69.512 138.839 70.733 137.618 70.733 136.118V70.69C70.733 69.189 69.512 67.969 68.011 67.969H25.964Z" fill="#690589"/>
</g>
<g id="Group_23">
<path id="Vector_23" d="M130.64 142.84H88.592C84.886 142.84 81.871 139.825 81.871 136.119V70.69C81.871 66.984 84.886 63.969 88.592 63.969H130.64C134.346 63.969 137.361 66.984 137.361 70.69V136.118C137.36 139.825 134.346 142.84 130.64 142.84ZM88.592 67.969C87.092 67.969 85.871 69.19 85.871 70.69V136.118C85.871 137.618 87.092 138.839 88.592 138.839H130.64C132.14 138.839 133.361 137.618 133.361 136.118V70.69C133.361 69.189 132.14 67.969 130.64 67.969H88.592Z" fill="#690589"/>
</g>
<g id="Group_24">
<path id="Vector_24" d="M193.268 142.84H151.221C147.515 142.84 144.499 139.825 144.499 136.119V70.69C144.499 66.984 147.515 63.969 151.221 63.969H193.268C196.974 63.969 199.989 66.984 199.989 70.69V136.118C199.988 139.825 196.974 142.84 193.268 142.84ZM151.221 67.969C149.72 67.969 148.499 69.19 148.499 70.69V136.118C148.499 137.618 149.72 138.839 151.221 138.839H193.268C194.768 138.839 195.989 137.618 195.989 136.118V70.69C195.989 69.189 194.768 67.969 193.268 67.969H151.221Z" fill="#690589"/>
</g>
<g id="Group_25">
<path id="Vector_25" d="M168.593 227.672H51.872C50.768 227.672 49.872 226.777 49.872 225.672V193.91C49.872 190.204 52.888 187.189 56.594 187.189H163.871C167.577 187.189 170.593 190.204 170.593 193.91V225.672C170.593 226.776 169.697 227.672 168.593 227.672ZM53.872 223.672H166.593V193.91C166.593 192.409 165.372 191.189 163.871 191.189H56.594C55.093 191.189 53.872 192.41 53.872 193.91V223.672Z" fill="#690589"/>
</g>
<g id="Group_26">
<path id="Vector_26" d="M215.231 252.222H4C2.895 252.222 2 251.326 2 250.222V235.114C2 228.804 7.133 223.672 13.442 223.672H205.789C212.099 223.672 217.231 228.805 217.231 235.114V250.222C217.231 251.327 216.336 252.222 215.231 252.222ZM6 248.222H213.231V235.114C213.231 231.01 209.892 227.672 205.789 227.672H13.442C9.338 227.672 6 231.011 6 235.114V248.222Z" fill="#690589"/>
</g>
<g id="Group_27">
<path id="Vector_27" d="M206.072 166.549H13.159C9.3 166.549 6.159 163.409 6.159 159.549V150.407C6.159 149.302 7.054 148.407 8.159 148.407H211.072C212.177 148.407 213.072 149.302 213.072 150.407V159.549C213.072 163.409 209.932 166.549 206.072 166.549ZM10.159 152.407V159.549C10.159 161.203 11.505 162.549 13.159 162.549H206.072C207.726 162.549 209.072 161.203 209.072 159.549V152.407H10.159Z" fill="#690589"/>
</g>
</g>
<g id="number_1">
<path id="Vector_28" d="M67.768 140.871H25.721C23.114 140.871 21 138.757 21 136.15V70.721C21 68.114 23.114 66 25.721 66H67.768C70.375 66 72.489 68.114 72.489 70.721V136.149C72.489 138.757 70.375 140.871 67.768 140.871Z" fill="#F4EFED"/>
</g>
<g id="number_2">
<path id="Vector_29" d="M130.257 140.871H88.21C85.602 140.871 83.489 138.757 83.489 136.15V70.721C83.489 68.114 85.603 66 88.21 66H130.257C132.864 66 134.978 68.114 134.978 70.721V136.149C134.978 138.757 132.865 140.871 130.257 140.871Z" fill="#F4EFED"/>
</g>
<g id="number_3">
<path id="Vector_30" d="M192.747 140.871H150.699C148.092 140.871 145.978 138.757 145.978 136.15V70.721C145.978 68.114 148.092 66 150.699 66H192.746C195.353 66 197.467 68.114 197.467 70.721V136.149C197.468 138.757 195.354 140.871 192.747 140.871Z" fill="#F4EFED"/>
</g>
<g id="pull">
<g id="Group_28">
<g id="Group_29">
<path id="Vector_31" d="M241.855 115.197H228.477V105.755H237.134V56.402H246.576V110.476C246.577 113.083 244.463 115.197 241.855 115.197Z" fill="#D6D1CF"/>
</g>
</g>
<g id="Group_30">
<g id="Group_31">
<path id="Vector_32" d="M241.855 117.197H228.477C227.373 117.197 226.477 116.301 226.477 115.197V105.755C226.477 104.651 227.373 103.755 228.477 103.755H235.134V56.402C235.134 55.298 236.03 54.402 237.134 54.402H246.576C247.68 54.402 248.576 55.298 248.576 56.402V110.476C248.577 114.182 245.561 117.197 241.855 117.197ZM230.477 113.197H241.855C243.356 113.197 244.577 111.976 244.577 110.476V58.402H239.135V105.754C239.135 106.858 238.24 107.754 237.135 107.754H230.478V113.197H230.477Z" fill="#690589"/>
</g>
</g>
<g id="Group_32">
<path id="Vector_33" d="M249.027 63.5758C252.988 59.6144 252.988 53.1916 249.027 49.2302C245.065 45.2687 238.643 45.2687 234.681 49.2301C230.72 53.1916 230.72 59.6144 234.681 63.5758C238.643 67.5372 245.065 67.5372 249.027 63.5758Z" fill="#E12579"/>
</g>
<g id="Group_33">
<path id="Vector_34" d="M241.855 68.546C235.159 68.546 229.71 63.098 229.71 56.402C229.71 49.706 235.158 44.258 241.855 44.258C248.552 44.258 254 49.706 254 56.402C254 63.098 248.552 68.546 241.855 68.546ZM241.855 48.258C237.364 48.258 233.71 51.911 233.71 56.402C233.71 60.893 237.363 64.546 241.855 64.546C246.347 64.546 250 60.893 250 56.402C250 51.911 246.347 48.258 241.855 48.258Z" fill="#690589"/>
</g>
</g>
</g>
</g>
<defs>
<clipPath id="clip0">
<rect width="256" height="256" fill="white"/>
</clipPath>
</defs>
</svg>
